<svg width="24" height="24" fill="none" xmlns="http://www.w3.org/2000/svg">
    <path d="m13.5 3.677-.75.662.043.045.707-.707Zm6.823 9.823-.662-.75a.96.96 0 0 0-.045.043l.707.707Zm.177-2.823.75-.662a.947.947 0 0 0-.043-.045l-.707.707ZM10.677 20.5l-.707.707.045.043.662-.75Zm2.646 0 .662.75a.96.96 0 0 0 .045-.043l-.707-.707Zm-9.646-7 .707-.707-.022-.022-.023-.02-.662.749ZM7 6a1 1 0 0 0 0 2V6Zm.01 2a1 1 0 0 0 0-2v2ZM4 7a3 3 0 0 1 3-3V2a5 5 0 0 0-5 5h2Zm0 5V7H2v5h2Zm3-8h5V2H7v2Zm5 0c.299 0 .566.13.75.339l1.5-1.324A2.995 2.995 0 0 0 12 2v2Zm8 8c0 .299-.13.566-.339.75l1.324 1.5A2.995 2.995 0 0 0 22 12h-2Zm-.25-.661c.156.177.25.407.25.661h2c0-.76-.284-1.456-.75-1.985l-1.5 1.324ZM12 20a.993.993 0 0 1-.661-.25l-1.324 1.5c.529.466 1.225.75 1.985.75v-2Zm.661-.25A.993.993 0 0 1 12 20v2c.76 0 1.456-.284 1.985-.75l-1.324-1.5Zm-8.322-7A.995.995 0 0 1 4 12H2c0 .896.394 1.701 1.015 2.25l1.324-1.5Zm8.454-8.366 7 7 1.414-1.414-7-7-1.414 1.414Zm-1.409 15.409-7-7-1.414 1.414 7 7 1.414-1.414Zm8.232-7-7 7 1.414 1.414 7-7-1.414-1.414ZM7 8h.01V6H7v2Z" fill="#0F172A"/>
</svg>
